<svg fill="none" height="30" viewBox="0 0 155 30" width="155" xmlns="http://www.w3.org/2000/svg"><g fill="#f8f8f8"><path d="m54.842 24.213v2.51h3.25c1.074 0 1.531-.507 1.531-1.272 0-.69-.482-1.238-1.53-1.238h-3.253zm-.566-.533h3.817c1.38 0 2.112.782 2.112 1.771 0 1.023-.69 1.805-2.112 1.805h-3.253v2.66h-.565v-6.236zm15.752 3.983-1.77-3.575-1.772 3.575zm-2.178-3.983h.831l3.11 6.237h-.648l-.849-1.722h-4.074l-.848 1.722h-.633l3.11-6.237zm9.624.533v2.427h3.218c1.073 0 1.53-.49 1.53-1.23 0-.665-.482-1.197-1.53-1.197zm-.566-.533h3.784c1.38 0 2.112.765 2.112 1.73 0 .998-.69 1.763-2.095 1.763l2.453 2.744h-.749l-2.436-2.744h-2.503v2.744h-.566zm11.495 0h.565v6.237h-.565zm10.92 4.549c0-2.03-4.882-.275-4.882-2.894 0-1.056.89-1.738 2.446-1.738.99 0 2.062.332 2.877.94l-.333.449c-.757-.532-1.605-.857-2.544-.857-1.19 0-1.88.44-1.88 1.18 0 2.005 4.881.283 4.881 2.895 0 1.106-.923 1.796-2.635 1.796-1.04 0-2.188-.316-3.044-.94l.332-.449c.798.55 1.714.857 2.712.857 1.347 0 2.07-.474 2.07-1.24z"/><path clip-rule="evenodd" d="m39.397 0c6.662 0 11.334 3.515 11.334 7.917 0 4.404-4.548 7.918-11.334 7.918-6.754 0-11.3-3.514-11.3-7.918 0-4.403 4.629-7.917 11.3-7.917zm-18.937 15.467c-2.757.006-5.363.368-8.88.368-6.699 0-11.58-3.323-11.58-7.802 0-4.773 5.244-8.033 11.975-8.033 3.334 0 6.416.939 8.262 2.75l-1.695.958c-1.306-1.465-2.821-2.7-5.672-2.7-5.272 0-7.495 2.622-7.495 7.025 0 3.744 2.02 6.794 7.131 6.794 1.392 0 2.903-.635 3.341-1.591l.006-4.995h-3.642v-1.307h8.248v8.533zm92.813-7.67c4.687 0 6.318-.98 6.318-3.311 0-1.744-1.222-3.069-6.202-3.069h-3.96v6.38zm-8.775 7.617v-14.994l13.339.003c5.117 0 6.92 2.14 6.92 4.39 0 2.533-2.616 3.665-6.836 3.946l-.151.01 7.018 6.645h-6.175l-6.65-6.526h-2.534v6.526zm-19.8-11.128-4.611 7.108h8.967l-4.355-7.108zm12.588 11.128h-5.78l-1.683-2.74-10.55.005-1.747 2.735h-1.938l10.064-15.228h1.846l9.787 15.228zm-24.891-14.994h2.1l-7.569 8.137v6.857h-5.173v-6.563l-7.907-8.43h6.16l6.103 6.744 6.287-6.745zm65.974 13.957h2.219c6.122 0 8.266-2.35 8.266-6.331 0-3.845-2.037-6.616-8.005-6.616h-2.48zm-5.166-13.957h8.408c9.211 0 12.553 2.919 12.553 7.58 0 4.774-3.358 7.414-11.554 7.414h-9.407zm-93.806 14.407c4.762 0 6.054-3.957 6.054-6.91 0-2.954-1.568-6.91-6.054-6.91-4.313 0-6.019 3.955-6.019 6.91 0 2.952 1.247 6.91 6.02 6.91z" fill-rule="evenodd"/></g></svg>
